<svg width="70" height="70" viewBox="0 0 70 70" fill="none" xmlns="http://www.w3.org/2000/svg">
<rect width="70" height="70" rx="10" fill="#67FE80"/>
<path d="M42.5098 41.0566H52.7637C52.627 44.0254 51.8262 46.6426 50.3613 48.9082C48.8965 51.1738 46.8652 52.9414 44.2676 54.2109C41.6895 55.4609 38.6426 56.0859 35.127 56.0859C32.2754 56.0859 29.7266 55.6074 27.4805 54.6504C25.2539 53.6934 23.3594 52.3164 21.7969 50.5195C20.2539 48.7227 19.0723 46.5449 18.252 43.9863C17.4512 41.4277 17.0508 38.5469 17.0508 35.3438V33.0293C17.0508 29.8262 17.4707 26.9453 18.3105 24.3867C19.1699 21.8086 20.3809 19.6211 21.9434 17.8242C23.5254 16.0078 25.4199 14.6211 27.627 13.6641C29.834 12.707 32.2852 12.2285 34.9805 12.2285C38.6914 12.2285 41.8262 12.8926 44.3848 14.2207C46.9434 15.5488 48.9258 17.375 50.332 19.6992C51.7383 22.0039 52.5684 24.6309 52.8223 27.5801H42.5684C42.5293 25.9785 42.2559 24.6406 41.748 23.5664C41.2402 22.4727 40.4395 21.6523 39.3457 21.1055C38.252 20.5586 36.7969 20.2852 34.9805 20.2852C33.7109 20.2852 32.6074 20.5195 31.6699 20.9883C30.7324 21.457 29.9512 22.1992 29.3262 23.2148C28.7012 24.2305 28.2324 25.5488 27.9199 27.1699C27.627 28.7715 27.4805 30.7051 27.4805 32.9707V35.3438C27.4805 37.6094 27.6172 39.543 27.8906 41.1445C28.1641 42.7461 28.6035 44.0547 29.209 45.0703C29.8145 46.0859 30.5957 46.8379 31.5527 47.3262C32.5293 47.7949 33.7207 48.0293 35.127 48.0293C36.6895 48.0293 38.0078 47.7852 39.082 47.2969C40.1562 46.7891 40.9863 46.0273 41.5723 45.0117C42.1582 43.9766 42.4707 42.6582 42.5098 41.0566Z" fill="black"/>
</svg>
